<svg xmlns="http://www.w3.org/2000/svg" width="125" height="355" viewBox="0 0 125 355">
  <defs>
    <style>
      .cls-1, .cls-7 {
        fill: #fff;
      }

      .cls-1, .cls-2, .cls-3, .cls-4, .cls-5, .cls-6, .cls-7, .cls-8, .cls-9 {
        fill-rule: evenodd;
      }

      .cls-2 {
        fill: #f8f7f4;
      }

      .cls-3 {
        fill: #f7f8f8;
      }

      .cls-4 {
        fill: #e84d37;
      }

      .cls-5 {
        fill: #343434;
      }

      .cls-6 {
        fill: #353535;
      }

      .cls-6, .cls-7 {
        fill-opacity: 0.99;
      }

      .cls-8 {
        fill: #333;
      }

      .cls-9 {
        fill: #323232;
      }
    </style>
  </defs>
  <path id="Чербокс_выкл." data-name="Чербокс выкл." class="cls-1" d="M40.146,295.137H51.854a4.135,4.135,0,0,1,4.161,4.109v11.507a4.135,4.135,0,0,1-4.161,4.109H40.146a4.135,4.135,0,0,1-4.161-4.109V299.246A4.135,4.135,0,0,1,40.146,295.137ZM40,296.111H52a2.981,2.981,0,0,1,3,2.963v11.852a2.982,2.982,0,0,1-3,2.963H40a2.982,2.982,0,0,1-3-2.963V299.074A2.981,2.981,0,0,1,40,296.111Z"/>
  <path id="Радиобаттон_вкл._copy" data-name="Радиобаттон вкл. copy" class="cls-2" d="M19.84,325.009A9.991,9.991,0,1,1,9.725,335,10.053,10.053,0,0,1,19.84,325.009Zm0,1.234A8.757,8.757,0,1,1,10.974,335,8.812,8.812,0,0,1,19.84,326.243Zm0,3.432A5.324,5.324,0,1,1,14.451,335,5.358,5.358,0,0,1,19.842,329.675Z"/>
  <path id="Чербокс_вкл._copy" data-name="Чербокс вкл.  copy" class="cls-1" d="M40.146,325.137H51.854a4.135,4.135,0,0,1,4.161,4.109v11.507a4.135,4.135,0,0,1-4.161,4.109H40.146a4.135,4.135,0,0,1-4.161-4.109V329.246A4.135,4.135,0,0,1,40.146,325.137ZM40,326.111H52a2.981,2.981,0,0,1,3,2.963v11.852a2.982,2.982,0,0,1-3,2.963H40a2.982,2.982,0,0,1-3-2.963V329.074A2.981,2.981,0,0,1,40,326.111Zm12.369,5.882-5.93,5.857v0L44.675,339.6h0l-1.765-1.743v0l-3.07-3.032,1.765-1.743,3.07,3.032,5.93-5.857Z"/>
  <path id="Радиобаттон_выкл." data-name="Радиобаттон выкл." class="cls-2" d="M20,295.009a9.991,9.991,0,1,1-9.99,9.99A9.99,9.99,0,0,1,20,295.009Zm0,1.234A8.757,8.757,0,1,1,11.24,305,8.756,8.756,0,0,1,20,296.243Z"/>
  <path id="Сердце" class="cls-3" d="M17.606,200.732s7.285-3.6,7.285-8.224c0-5.126-5.5-5.936-7.3-1.705m0.049,9.929s-7.285-3.6-7.285-8.224c0-5.126,5.5-5.936,7.3-1.705"/>
  <path id="ВК" class="cls-1" d="M90.865,252.228a15.692,15.692,0,1,1-15.692,15.691A15.691,15.691,0,0,1,90.865,252.228Zm5.968,18.252a3.116,3.116,0,0,0-.758-2.2,3.7,3.7,0,0,0-2.016-1.082v-0.072a2.937,2.937,0,0,0,1.371-1.144,3.191,3.191,0,0,0,.5-1.77,3.106,3.106,0,0,0-.362-1.518,2.635,2.635,0,0,0-1.091-1.051,4.3,4.3,0,0,0-1.446-.476,16.216,16.216,0,0,0-2.269-.116h-4.8v13.6H91.4a8.838,8.838,0,0,0,2.332-.256,4.8,4.8,0,0,0,1.686-.857,3.637,3.637,0,0,0,1.032-1.268,3.943,3.943,0,0,0,.384-1.784h0ZM92.46,264.9a1.54,1.54,0,0,0-.168-0.677,1.014,1.014,0,0,0-.527-0.5,2.137,2.137,0,0,0-.8-0.162c-0.308-.009-0.767-0.012-1.374-0.012H89.355v2.877h0.43c0.583,0,.994-0.007,1.229-0.019a1.981,1.981,0,0,0,.726-0.19,1.11,1.11,0,0,0,.564-0.529,1.89,1.89,0,0,0,.156-0.786h0Zm0.857,5.522a1.648,1.648,0,0,0-.255-0.984,1.54,1.54,0,0,0-.767-0.539,2.54,2.54,0,0,0-.853-0.134c-0.362-.01-0.848-0.013-1.456-0.013h-0.63v3.4h0.184q1.332,0,1.842-.019a2.883,2.883,0,0,0,1.041-.246A1.359,1.359,0,0,0,93.1,271.3,1.783,1.783,0,0,0,93.316,270.417Z"/>
  <path id="ФБ" class="cls-1" d="M90.865,211.228a15.692,15.692,0,1,1-15.692,15.691A15.691,15.691,0,0,1,90.865,211.228Zm0.774,24.989v-9.291h2.742l0.285-3.089H91.638l0-1.856c0-.894.084-1.256,1.367-1.256h1.764V217.3H91.982c-3.294,0-4.082,1.546-4.082,4.342v2.2H86.011v3.089H87.9v9.291h3.739Z"/>
  <path id="Инста" class="cls-1" d="M33.865,252.228a15.692,15.692,0,1,1-15.692,15.691A15.691,15.691,0,0,1,33.865,252.228Zm6.272,23.61a1.745,1.745,0,0,0,1.745-1.745V261.782a1.745,1.745,0,0,0-1.745-1.745H27.809a1.745,1.745,0,0,0-1.745,1.745v12.311a1.745,1.745,0,0,0,1.745,1.745H40.136Zm-1.375-9.1a4.921,4.921,0,1,1-9.529,0h-1.38v6.785a0.612,0.612,0,0,0,.611.612H39.529a0.612,0.612,0,0,0,.611-0.612v-6.785S39.644,266.739,38.761,266.737ZM34,265.132a2.847,2.847,0,1,1,0,5.677A2.839,2.839,0,0,1,34,265.132Zm3.7-3.316H39.56a0.611,0.611,0,0,1,.611.611v1.864a0.612,0.612,0,0,1-.611.612H37.7a0.612,0.612,0,0,1-.611-0.612v-1.864A0.611,0.611,0,0,1,37.7,261.816Z"/>
  <path id="Твитер" class="cls-1" d="M33.427,211.165a15.692,15.692,0,1,1-15.692,15.692A15.692,15.692,0,0,1,33.427,211.165Zm9.138,10.811a7.3,7.3,0,0,1-2.092.573,3.656,3.656,0,0,0,1.6-2.015,7.294,7.294,0,0,1-2.313.884,3.646,3.646,0,0,0-6.207,3.322,10.34,10.34,0,0,1-7.507-3.806,3.646,3.646,0,0,0,1.127,4.863,3.638,3.638,0,0,1-1.65-.455c0,0.015,0,.03,0,0.045a3.645,3.645,0,0,0,2.922,3.572,3.657,3.657,0,0,1-.96.127,3.6,3.6,0,0,1-.685-0.065,3.645,3.645,0,0,0,3.4,2.529,7.351,7.351,0,0,1-5.392,1.509,10.359,10.359,0,0,0,15.946-8.727q0-.237-0.011-0.471A7.415,7.415,0,0,0,42.565,221.976Z"/>
  <path id="Чербокс_вкл._copy_2" data-name="Чербокс вкл.  copy 2" class="cls-1" d="M99.146,184.013h11.708a4.161,4.161,0,0,1,4.16,4.161v11.651a4.161,4.161,0,0,1-4.16,4.161H99.146a4.161,4.161,0,0,1-4.161-4.161V188.174A4.161,4.161,0,0,1,99.146,184.013ZM99.6,185.9h10.8a2.7,2.7,0,0,1,2.7,2.7v10.8a2.7,2.7,0,0,1-2.7,2.7H99.6a2.7,2.7,0,0,1-2.7-2.7V188.6A2.7,2.7,0,0,1,99.6,185.9Zm11.769,5.055-5.93,5.931h0l-1.765,1.766v0l0,0-1.765-1.766h0l-3.07-3.07,1.766-1.765,3.07,3.07,5.93-5.931Z"/>
  <path id="Чербокс_выкл._copy" data-name="Чербокс выкл. copy" class="cls-1" d="M71.146,184.013H82.854a4.161,4.161,0,0,1,4.161,4.161v11.651a4.161,4.161,0,0,1-4.161,4.161H71.146a4.161,4.161,0,0,1-4.161-4.161V188.174A4.161,4.161,0,0,1,71.146,184.013ZM71.6,185.9H82.4a2.7,2.7,0,0,1,2.7,2.7v10.8a2.7,2.7,0,0,1-2.7,2.7H71.6a2.7,2.7,0,0,1-2.7-2.7V188.6A2.7,2.7,0,0,1,71.6,185.9Z"/>
  <path id="Радиобаттон_выкл._copy" data-name="Радиобаттон выкл. copy" class="cls-2" d="M76.84,153.885A10.115,10.115,0,1,1,66.725,164,10.115,10.115,0,0,1,76.84,153.885Zm0,2.135a7.98,7.98,0,1,1-7.98,7.98A7.98,7.98,0,0,1,76.841,156.02Z"/>
  <path id="Радиобаттон_вкл._copy_2" data-name="Радиобаттон вкл. copy 2" class="cls-2" d="M104.84,153.885A10.115,10.115,0,1,1,94.725,164,10.115,10.115,0,0,1,104.84,153.885Zm0,2.135a7.98,7.98,0,1,1-7.98,7.98A7.979,7.979,0,0,1,104.841,156.02Zm0,2.589A5.391,5.391,0,1,1,99.451,164,5.391,5.391,0,0,1,104.842,158.609Z"/>
  <path id="Корзина" class="cls-1" d="M56.576,128.46l-1.2,8.912a2.034,2.034,0,0,1-1.883,1.635H42.61a2.028,2.028,0,0,1-1.879-1.635l-1.469-10.287a3.679,3.679,0,0,1-.137-1.055H37a1,1,0,1,1,0-2h4a0.992,0.992,0,0,1,.1,1.98H55.067C56.172,126.01,56.84,127.141,56.576,128.46Zm-13.844,8.518-1.313-9H54.624s-0.031.2-.031,0.2l-1.186,8.788c-0.008.011-.009,0.014,0,0.014H42.731Zm0.514,3.008a1.875,1.875,0,1,1-1.874,1.875A1.875,1.875,0,0,1,43.245,139.986Zm9,0a1.875,1.875,0,1,1-1.874,1.875A1.875,1.875,0,0,1,52.246,139.986Z"/>
  <path id="Корзина_заполнена" data-name="Корзина заполнена" class="cls-4" d="M40.582,157.391h15.4l-1.4,10.4-12.855-.127Z"/>
  <path id="Корзина-2" data-name="Корзина" class="cls-5" d="M56.95,158.492l-1.225,9.039a2.068,2.068,0,0,1-1.917,1.658H42.73a2.062,2.062,0,0,1-1.913-1.658l-1.5-10.434a3.706,3.706,0,0,1-.139-1.069H37.018a1.015,1.015,0,1,1,0-2.029h4.073a1.006,1.006,0,0,1,.1,2.008H55.413C56.539,156.007,57.219,157.154,56.95,158.492Zm-14.1,8.639L41.517,158H54.963s-0.032.2-.032,0.2l-1.208,8.913c-0.008.011-.009,0.014,0,0.014H42.854Zm0.523,3.052a1.9,1.9,0,1,1-1.908,1.9A1.9,1.9,0,0,1,43.377,170.183Zm9.164,0a1.9,1.9,0,1,1-1.908,1.9A1.9,1.9,0,0,1,52.541,170.183Z"/>
  <path id="Корзина_copy" data-name="Корзина copy" class="cls-5" d="M56.95,188.492l-1.225,9.039a2.068,2.068,0,0,1-1.917,1.658H42.73a2.062,2.062,0,0,1-1.913-1.658l-1.5-10.434a3.706,3.706,0,0,1-.139-1.069H37.018a1.015,1.015,0,1,1,0-2.029h4.073a1.006,1.006,0,0,1,.1,2.008H55.413C56.539,186.007,57.219,187.154,56.95,188.492Zm-14.1,8.639L41.517,188H54.963s-0.032.2-.032,0.2l-1.208,8.913c-0.008.011-.009,0.014,0,0.014H42.854Zm0.523,3.052a1.9,1.9,0,1,1-1.908,1.9A1.9,1.9,0,0,1,43.377,200.183Zm9.164,0a1.9,1.9,0,1,1-1.908,1.9A1.9,1.9,0,0,1,52.541,200.183Z"/>
  <path id="Вход_copy" data-name="Вход copy" class="cls-6" d="M98,127.968v-0.96a3,3,0,0,1,3-3h11.059a3,3,0,0,1,3,3v12.977a3,3,0,0,1-3,3H101a3,3,0,0,1-3-3V139h2v2h13V126H100v1.969H98Zm-3,8.046h6.029v2.743l7.027-5.3-7.027-5.3V130.9H94.995v5.113Z"/>
  <path id="Вход" class="cls-7" d="M70,127.968v-0.96a3,3,0,0,1,3-3H84.059a3,3,0,0,1,3,3v12.977a3,3,0,0,1-3,3H73a3,3,0,0,1-3-3V139h2v2H85V126H72v1.969H70Zm-3,8.046h6.029v2.744l7.027-5.3-7.027-5.3V130.9H66.995v5.113Z"/>
  <path id="Лупа" class="cls-8" d="M22.155,164.747H21.4l-0.263-.261a6.223,6.223,0,1,0-.675.674l0.263,0.262v0.755l4.772,4.76,1.424-1.422Zm-5.731,0a4.292,4.292,0,1,1,4.3-4.291A4.295,4.295,0,0,1,16.424,164.747Z"/>
  <path id="Лупа-2" data-name="Лупа" class="cls-1" d="M22.155,134.747H21.4l-0.263-.262a6.213,6.213,0,1,0-.675.675l0.263,0.262v0.755l4.772,4.76,1.424-1.422Zm-5.731,0a4.292,4.292,0,1,1,4.3-4.292A4.295,4.295,0,0,1,16.424,134.747Z"/>
  <path id="Градусник" class="cls-9" d="M91.023,105.333A6.815,6.815,0,0,1,84.2,98.559a8.051,8.051,0,0,1,1.822-4.6V79.115a5,5,0,0,1,10,0v14.91A7.649,7.649,0,0,1,97.8,98.559,6.775,6.775,0,0,1,91.023,105.333Zm0-2a4.8,4.8,0,0,1-4.8-4.774,5.249,5.249,0,0,1,1.846-3.779V79.115a3,3,0,0,1,6,0V94.844a5.077,5.077,0,0,1,1.754,3.715A4.8,4.8,0,0,1,91.023,103.333Zm2.706-4.915a2.774,2.774,0,1,1-3.675-2.611V78.975a0.949,0.949,0,0,1,1.9,0V95.837A2.768,2.768,0,0,1,93.729,98.418ZM99,82h4a1,1,0,0,1,0,2H99A1,1,0,1,1,99,82Zm0-4h4a1,1,0,0,1,0,2H99A1,1,0,1,1,99,78Zm0,8h4a1,1,0,0,1,0,2H99A1,1,0,1,1,99,86Zm0,4h4a1,1,0,1,1,0,2H99A1,1,0,1,1,99,90ZM91.183,66.8a23.7,23.7,0,1,1-23.7,23.7A23.7,23.7,0,0,1,91.183,66.8Zm0,45.4a21.7,21.7,0,1,1,21.7-21.7A21.726,21.726,0,0,1,91.183,112.2Z"/>
  <path id="Корова" class="cls-9" d="M106.578,33a2.421,2.421,0,0,1-2.127,1.047,9.368,9.368,0,0,1-3.256-.84,17.059,17.059,0,0,1-1.576,8.344,5.2,5.2,0,0,1,.517,3.079c-0.488,3.386-4.283,5.239-8.524,5.239s-8.018-1.853-8.48-5.239a5.161,5.161,0,0,1,.33-2.617,17.337,17.337,0,0,1-1.787-8.725,9.106,9.106,0,0,1-3.064.759A2.42,2.42,0,0,1,76.484,33a2.312,2.312,0,0,1-.162-2.214c0.812-1.912,3.593-2.743,4.75-3.012l0.1-.022c-1.4-2.9-.723-7.6-0.2-9.191l3.058,0.254c0.056,1,.766,2.881,3.436,5.01l1.586,1.092a12.211,12.211,0,0,1,4.685-.02l1.692-1.165c2.67-2.129,3.38-4.007,3.436-5.01l3.058-.254c0.528,1.6,1.207,6.342-.224,9.239l0.294,0.068c1.157,0.268,3.937,1.1,4.75,3.012A2.312,2.312,0,0,1,106.578,33ZM81.509,29.72s-2.859.663-3.362,1.846,3.155-.131,3.835-0.693A2.342,2.342,0,0,1,81.509,29.72Zm3.3,0.069c-1.752,2.755-1.577,7.006.468,11.372l0.366,0.781-0.317.8a3.174,3.174,0,0,0-.209,1.611c0.329,2.411,3.6,3.509,6.5,3.509s6.2-1.1,6.545-3.523a3.2,3.2,0,0,0-.33-1.905l-0.416-.84,0.379-.858c1.878-4.251,1.97-8.371.244-11.019-1.3-1.991-3.575-3.043-6.587-3.043C88.4,26.676,86.1,27.752,84.806,29.788ZM104.9,31.565c-0.5-1.183-3.361-1.846-3.361-1.846a2.34,2.34,0,0,1-.474,1.152C101.745,31.434,105.4,32.748,104.9,31.565Zm-18.57-6.1s-3.595-2.477-3.735-5.015c-0.4,2.175-.584,5.613.705,6.983A22.034,22.034,0,0,1,86.329,25.468Zm10.232-.094s3.595-2.476,3.736-5.015c0.4,2.175.584,5.613-.705,6.983A22.053,22.053,0,0,0,96.561,25.374ZM91.183,9.8a23.7,23.7,0,1,1-23.7,23.7A23.7,23.7,0,0,1,91.183,9.8Zm0,45.4a21.7,21.7,0,1,1,21.7-21.7A21.726,21.726,0,0,1,91.183,55.2Z"/>
  <path id="Листик" class="cls-9" d="M33.437,106.625s-22.24-10.188,0-32.75C55.677,96.437,33.437,106.625,33.437,106.625Zm7.516-17.188L34.416,93.6h0L34.4,97.28l6.894-4.408A13.425,13.425,0,0,0,40.953,89.437Zm-15.39,3.191L32.4,97.112V93.491l-6.453-4.153A13.666,13.666,0,0,0,25.563,92.628ZM32.4,91.112V87.476L28,84.1a22.022,22.022,0,0,0-1.464,3.24Zm0-6.088V77.977A39.949,39.949,0,0,0,29.04,82.4Zm2,0.273,3.63-2.6A39.786,39.786,0,0,0,34.4,77.88V85.3Zm0.021,2.3h0L34.4,91.28l5.981-3.849a21.7,21.7,0,0,0-1.337-3.013Zm6.443,7.9-6.443,4.1h0L34.4,103.764A15.351,15.351,0,0,0,40.859,95.5ZM32.4,103.7V99.491L25.979,95.36C27.085,99.5,30.3,102.286,32.4,103.7Zm1.1-36.9A23.7,23.7,0,1,1,9.8,90.5,23.7,23.7,0,0,1,33.5,66.8Zm0,45.4A21.7,21.7,0,1,1,55.2,90.5,21.726,21.726,0,0,1,33.5,112.2Z"/>
  <path id="Мороженко" class="cls-9" d="M39.454,19.447a8.575,8.575,0,0,0-14.639,6.064V40.19a0.809,0.809,0,0,0,.809.809H41.157a0.809,0.809,0,0,0,.809-0.809V25.511A8.519,8.519,0,0,0,39.454,19.447Zm0.894,19.934H26.433V28.489c0.045,0.048.092,0.1,0.143,0.156a2.618,2.618,0,0,0,4.309,0,1.207,1.207,0,0,1,.946-0.6,1.061,1.061,0,0,1,.309.427,10.672,10.672,0,0,1,.488,1.226,9.72,9.72,0,0,0,.7,1.648,1.752,1.752,0,0,0,3.237,0,9.728,9.728,0,0,0,.7-1.648,10.6,10.6,0,0,1,.488-1.226,1.059,1.059,0,0,1,.309-0.427,1.208,1.208,0,0,1,.946.6,3.175,3.175,0,0,0,1.346,1v9.732Zm-9.006,8.58a2.049,2.049,0,0,0,4.1,0V41.8h-4.1v6.164ZM33.5,9.8A23.7,23.7,0,1,1,9.8,33.5,23.7,23.7,0,0,1,33.5,9.8Zm0,45.4A21.7,21.7,0,1,1,55.2,33.5,21.726,21.726,0,0,1,33.5,55.2Z"/>
</svg>
